<svg xmlns="http://www.w3.org/2000/svg" viewBox="0 0 28 40">
  <defs>
    <linearGradient id="tile-bg" x1="0" y1="0" x2="0" y2="1">
      <stop offset="0%" stop-color="#f8f4e8"/>
      <stop offset="100%" stop-color="#ede6cc"/>
    </linearGradient>
    <linearGradient id="shadow" x1="0" y1="0" x2="0" y2="1">
      <stop offset="0%" stop-color="#000" stop-opacity="0"/>
      <stop offset="100%" stop-color="#000" stop-opacity="0.15"/>
    </linearGradient>
  </defs>
  <rect x="0" y="0" width="28" height="40" rx="4" fill="url(#shadow)"/>
  <rect x="0.5" y="0.5" width="27" height="39" rx="4" fill="url(#tile-bg)" stroke="#8B7355" stroke-width="1"/>
  <rect x="3" y="3" width="22" height="34" rx="2.5" fill="none" stroke="#c9a84c" stroke-width="0.7"/>
  <rect x="11" y="15" width="6" height="21" rx="1" fill="#1a7a1a"/>
  <rect x="10" y="20" width="8" height="1.5" rx="0.5" fill="#146014"/>
  <rect x="10" y="26" width="8" height="1.5" rx="0.5" fill="#146014"/>
  <rect x="10" y="32" width="8" height="1.5" rx="0.5" fill="#146014"/>
  <ellipse cx="14" cy="10" rx="4.5" ry="6" fill="#2d8a2d"/>
  <circle cx="11" cy="7" r="3.2" fill="#2d8a2d"/>
  <polygon points="8,6.5 5,4 7.5,8" fill="#d4a017"/>
  <circle cx="11.3" cy="7.2" r="0.8" fill="#1a1a1a"/>
  <polygon points="17.5,8.5 20.5,13 19,14 21,16 18.5,14.5 17.5,11" fill="#1a6a1a"/>
  <ellipse cx="14" cy="10.5" rx="2.5" ry="4" fill="#1a7a1a" opacity="0.8"/>
  <line x1="14" y1="16" x2="13.5" y2="18" stroke="#8B6914" stroke-width="0.6"/>
  <line x1="14.5" y1="16" x2="15" y2="18" stroke="#8B6914" stroke-width="0.6"/>
</svg>
